<?xml version="1.0" encoding="UTF-8"?>
<svg width="1145px" height="223px" viewBox="0 0 1145 223" version="1.1" xmlns="http://www.w3.org/2000/svg" xmlns:xlink="http://www.w3.org/1999/xlink">
    <!-- Generator: Sketch 51.2 (57519) - http://www.bohemiancoding.com/sketch -->
    <title>Prancheta 2</title>
    <desc>Created with Sketch.</desc>
    <defs></defs>
    <g id="Page-1" stroke="none" stroke-width="1" fill="none" fill-rule="evenodd">
        <g id="Prancheta-2" transform="translate(0.000000, -3.000000)" fill-rule="nonzero">
            <polygon id="Shape" fill="#EEEEEE" points="0.25 199.21 0.25 3.21 106.25 3.21 80.47 43.21 40.47 43.21 40.47 79.57 97 79.57 97 119.57 40.4 119.57 40.4 199.18"></polygon>
            <path d="M133.36,101.76 C144.878028,101.751532 154.595783,93.1858605 156.05,81.76 L156.05,26.4 C156.044479,13.5743307 145.645671,3.17999881 132.82,3.18 L122.82,3.18 L97.02,43.18 L116.09,43.18 L116.09,199.18 L156.09,199.18 L156.09,121.75 C154.633443,110.310766 144.89158,101.743242 133.36,101.76 Z" id="Shape" fill="#41B883"></path>
            <path d="M281.84,136.74 L267.84,136.74 L267.84,202.52 L228.1,202.52 L228.1,6.59 L284.92,6.59 C323.82,6.59 346.77,30.66 346.77,71.81 C346.77,98.4 336.98,117.99 319.62,128.34 L356.57,202.52 L313.19,202.52 L281.84,136.74 Z M267.84,98.96 L284.36,98.96 C298.36,98.96 305.91,89.44 305.91,71.81 C305.91,53.89 298.35,44.38 284.36,44.38 L267.84,44.38 L267.84,98.96 Z" id="Shape" fill="#EEEEEE"></path>
            <polygon id="Shape" fill="#EEEEEE" points="468 164.73 468 202.52 364.12 202.52 364.12 6.59 465.12 6.59 465.12 44.38 403.87 44.38 403.87 85 459.56 85 459.56 121.39 403.87 121.39 403.87 164.77"></polygon>
            <path d="M603.42,144 C603.42,179 579.35,202.5 545.77,202.5 L483.91,202.5 L483.91,6.59 L544.91,6.59 C575.13,6.59 596.69,28.98 596.69,62.29 C596.69,77.12 590.53,92.8 580.17,102.29 C594.75,110.71 603.42,126.38 603.42,144 Z M523.65,44.1 L523.65,85 L539.33,85 C550.52,85 556.4,77.72 556.4,64 C556.4,50.84 550.8,44.13 537.93,44.13 L523.65,44.1 Z M562.56,143.74 C562.56,129.46 554.44,122.19 539.61,122.19 L523.61,122.19 L523.61,165 L538.73,165 C554.44,165 562.56,157.73 562.56,143.74 Z" id="Shape" fill="#EEEEEE"></path>
            <path d="M612.38,139 L612.38,70.13 C612.38,28.13 636.17,3.23 675.91,3.23 C715.65,3.23 739.45,28.14 739.45,70.13 L739.45,139 C739.45,181 715.66,205.89 675.91,205.89 C636.16,205.89 612.38,181 612.38,139 Z M698.3,139 L698.3,70.13 C698.3,51.65 690.75,41.86 675.91,41.86 C661.07,41.86 653.52,51.65 653.52,70.13 L653.52,139 C653.52,157.47 661.08,167.27 675.91,167.27 C690.74,167.27 698.3,157.45 698.3,139 Z" id="Shape" fill="#EEEEEE"></path>
            <path d="M880.51,139 C880.51,159.15 874.92,175.67 864.51,187.14 L879.62,205.33 L856.67,225.21 L838.2,203.1 C831.190766,205.074006 823.930844,206.013921 816.65,205.89 C776.65,205.89 752.83,180.98 752.83,139 L752.83,70.13 C752.83,28.13 776.62,3.23 816.65,3.23 C856.68,3.23 880.46,28.14 880.46,70.13 L880.51,139 Z M816.7,167.25 C831.53,167.25 839.09,157.45 839.09,138.98 L839.09,70.13 C839.09,51.65 831.53,41.86 816.7,41.86 C801.87,41.86 794.3,51.65 794.3,70.13 L794.3,139 C794.3,157.45 801.86,167.25 816.7,167.25 Z" id="Shape" fill="#EEEEEE"></path>
            <path d="M896.18,139.54 L896.18,6.59 L937.61,6.59 L937.61,139.59 C937.61,157.5 944.61,167.3 958.61,167.3 C972.61,167.3 979.61,157.5 979.61,139.59 L979.61,6.59 L1021,6.59 L1021,139.59 C1021,181.01 997.77,205.92 958.59,205.92 C919.41,205.92 896.18,181 896.18,139.54 Z" id="Shape" fill="#EEEEEE"></path>
            <polygon id="Shape" fill="#EEEEEE" points="1145 164.73 1145 202.52 1041.16 202.52 1041.16 6.59 1142.16 6.59 1142.16 44.38 1080.87 44.38 1080.87 85 1136.57 85 1136.57 121.39 1080.87 121.39 1080.87 164.77"></polygon>
        </g>
    </g>
</svg>